<svg width="17" height="16" viewBox="0 0 17 16" fill="none" xmlns="http://www.w3.org/2000/svg">
<path d="M12.825 15.7C12.725 15.7 12.525 15.7 12.425 15.6L8.225 13.4L4.025 15.6C3.625 15.8 3.125 15.7 2.925 15.3C2.825 15.1 2.825 14.9 2.825 14.8L3.625 10.2L0.225 6.80004C-0.075 6.50004 -0.075 6.00004 0.225 5.70004C0.325 5.60004 0.525 5.50004 0.725 5.50004L5.425 4.80004L7.525 0.600043C7.725 0.200043 8.225 4.29973e-05 8.625 0.200043C8.825 0.200043 8.925 0.300043 9.025 0.500043L11.125 4.70004L15.825 5.40004C16.225 5.50004 16.625 5.90004 16.525 6.30004C16.525 6.50004 16.425 6.60004 16.325 6.80004L12.925 10.1L13.725 14.7C13.825 15.1 13.525 15.6 13.125 15.7C13.025 15.7 12.925 15.7 12.825 15.7Z" fill="#FFAF38"/>
</svg>
